<?xml version="1.0" ?><svg style="enable-background:new 0 0 512 512;" version="1.1" viewBox="0 0 512 512" xml:space="preserve" xmlns="http://www.w3.org/2000/svg" xmlns:xlink="http://www.w3.org/1999/xlink"><style type="text/css">
	.st0{display:none;}
	.st1{fill:#FFE2D2;}
	.st2{fill:#FFDE83;}
	.st3{fill:#F57070;}
	.st4{fill:#DBDBEF;}
	.st5{fill:#BCE2FF;}
	.st6{fill:#48446D;}
	.st7{fill:#6E78FF;}
	.st8{fill:#FFBE83;}
	.st9{fill:#F5949E;}
	.st10{fill:#D0FF67;}
	.st11{fill:#C69C6D;}
	.st12{fill:#C5BDD3;}
	.st13{fill:#FFE2B8;}
	.st14{fill:#F54670;}
</style><g class="st0" id="Layer_1"/><g id="Layer_2"><g><path class="st1" d="M357.67,296.02v81.77l-10.59,31.83h-105.1c-0.97,0-1.88,0.21-2.72,0.57c-0.16,0.07-0.33,0.13-0.48,0.21    c-0.15,0.08-0.29,0.17-0.43,0.26c-3.83-4.44-9.48-10.95-14.08-16.25l-1.3-1.49c-0.02-0.03-0.04-0.05-0.06-0.07    c0.15-0.09,0.3-0.16,0.44-0.26c0.14-0.09,0.27-0.19,0.41-0.3c0.21-0.16,0.41-0.33,0.6-0.53c2.74-2.73,2.74-7.16,0-9.89    l-53.89-53.89c-1.89-1.89-2.93-4.39-2.93-7.06c0-2.66,1.04-5.17,2.93-7.06l15.88-15.88c1.88-1.88,4.39-2.92,7.05-2.92    c2.67,0,5.18,1.04,7.06,2.92l21.84,21.84c2,2,5.01,2.6,7.63,1.52c2.62-1.08,4.32-3.64,4.32-6.47V192.42c0-2.58,2.1-4.68,4.67-4.68    h33.07c2.58,0,4.68,2.1,4.68,4.68v74.08c0,3.87,3.13,7,7,7h51.49C347.57,273.5,357.67,283.6,357.67,296.02z"/><rect class="st7" height="31.69" width="96.15" x="248.98" y="423.62"/><path class="st3" d="M304.83,233.71c-0.11-0.12-0.22-0.26-0.32-0.39c-2.18-2.75-1.97-6.75,0.58-9.28    c40.94-40.52,61.47-77.39,61.03-109.59c-0.46-32.02-26.67-57.76-58.6-57.76h-0.82c-18.04,0.26-34.7,8.67-45.71,23.07    c-1.31,1.71-3.32,2.72-5.47,2.75c-2.16-0.02-4.19-0.93-5.54-2.6c-11.4-14.09-28.25-22.02-46.33-21.76    c-32.31,0.45-58.22,27.11-57.76,59.41c0.05,3.71-2.79,6.78-6.43,7.07c-0.16,0.01-0.31,0.03-0.47,0.03h-0.1    c-0.15,0-0.29-0.01-0.44-0.02c0.01,0.02,0.01,0.05,0.01,0.08c0.36,3.18,0.8,6.3,1.33,9.28c0,0.02,0.01,0.04,0.01,0.07    c0.16-0.06,0.32-0.12,0.48-0.16c0.14-0.04,0.27-0.07,0.41-0.1c0.03-0.01,0.05-0.01,0.08-0.01c0.88-0.18,1.79-0.17,2.66,0.01    c0.45,0.09,0.89,0.22,1.31,0.39c0.42,0.18,0.83,0.4,1.21,0.65c0.38,0.25,0.74,0.55,1.06,0.87c1.31,1.3,2.05,3.1,2.05,4.95    c0,1.84-0.74,3.64-2.05,4.95c-0.32,0.32-0.68,0.61-1.06,0.87c-0.38,0.25-0.79,0.47-1.21,0.64c-0.25,0.1-0.5,0.19-0.75,0.26    c-0.16,0.04-0.32,0.09-0.49,0.12c-0.02,0.01-0.05,0.02-0.07,0.02c-0.14,0.03-0.28,0.04-0.43,0.06c0.01,0.02,0.02,0.05,0.02,0.07    c1.18,3.85,2.53,7.38,4.02,10.49c0.01,0.04,0.03,0.07,0.05,0.1c0.13-0.11,0.26-0.21,0.4-0.31c0.13-0.09,0.29-0.17,0.43-0.26    c0.13-0.08,0.26-0.17,0.4-0.24c3.44-1.76,7.66-0.4,9.43,3.03c11.63,22.68,31.88,46.96,60.19,72.19c0.22,0.17,0.4,0.31,0.58,0.46    c0.51,0.45,1.03,0.86,1.55,1.27l0.18,0.14v-42.11c0-10.3,8.38-18.68,18.67-18.68h33.07c10.3,0,18.68,8.38,18.68,18.68v50.41    c0.07-0.04,0.14-0.07,0.22-0.11c5.14-2.5,9.93-5.4,14.24-8.61c0.01-0.01,0.03-0.02,0.05-0.04c-0.05-0.04-0.1-0.08-0.15-0.13    C304.96,233.86,304.88,233.79,304.83,233.71z M204.21,97.05c-5.27,0.07-10.19,2.19-13.85,5.96c-3.67,3.77-5.64,8.74-5.57,14    c0.04,2.56,0.37,5.3,0.98,8.15c0.82,3.78-1.57,7.5-5.35,8.32c-0.5,0.11-1,0.16-1.49,0.16c-3.23,0-6.13-2.24-6.84-5.52    c-0.81-3.75-1.25-7.42-1.3-10.91c-0.13-9,3.26-17.51,9.53-23.96s14.69-10.07,23.69-10.2h0.1c3.82,0,6.94,3.07,6.99,6.9    C211.16,93.81,208.07,96.99,204.21,97.05z"/><path class="st6" d="M380.12,114.26c0.5,36.15-21.43,76.43-65.19,119.73c-1.36,1.35-3.14,2.03-4.92,2.03    c-1.74,0-3.48-0.65-4.83-1.95c-0.05-0.04-0.1-0.08-0.15-0.13c-0.07-0.08-0.15-0.15-0.2-0.23c-0.11-0.12-0.22-0.26-0.32-0.39    c-2.18-2.75-1.97-6.75,0.58-9.28c40.94-40.52,61.47-77.39,61.03-109.59c-0.46-32.02-26.67-57.76-58.6-57.76h-0.82    c-18.04,0.26-34.7,8.67-45.71,23.07c-1.31,1.71-3.32,2.72-5.47,2.75c-2.16-0.02-4.19-0.93-5.54-2.6    c-11.4-14.09-28.25-22.02-46.33-21.76c-32.31,0.45-58.22,27.11-57.76,59.41c0.05,3.71-2.79,6.78-6.43,7.07    c-0.16,0.01-0.31,0.03-0.47,0.03h-0.1c-0.15,0-0.29-0.01-0.44-0.02c-3.61-0.22-6.51-3.19-6.56-6.88    c-0.28-19.39,7.02-37.72,20.53-51.63c13.52-13.9,31.64-21.71,51.03-21.98c19.57-0.28,38.05,7.21,51.83,20.79    c13.39-13.96,31.65-21.97,51.22-22.25C346.51,42.15,379.55,74.24,380.12,114.26z"/><path class="st6" d="M149.06,140.67c0,1.84-0.74,3.64-2.05,4.95c-0.32,0.32-0.68,0.61-1.06,0.87c-0.38,0.25-0.79,0.47-1.21,0.64    c-0.25,0.1-0.5,0.19-0.75,0.26c-0.16,0.04-0.32,0.09-0.49,0.12c-0.02,0.01-0.05,0.02-0.07,0.02c-0.14,0.03-0.28,0.04-0.43,0.06    c-0.31,0.05-0.62,0.08-0.94,0.08c-0.45,0-0.91-0.05-1.37-0.14c-0.44-0.09-0.88-0.22-1.3-0.4c-0.43-0.17-0.83-0.39-1.21-0.64    c-0.39-0.26-0.74-0.55-1.07-0.87c-1.3-1.3-2.05-3.11-2.05-4.95c0-1.85,0.75-3.65,2.05-4.95c0.33-0.32,0.68-0.62,1.07-0.87    c0.38-0.25,0.78-0.47,1.21-0.65c0.13-0.06,0.27-0.09,0.41-0.13c0.16-0.06,0.32-0.12,0.48-0.16c0.14-0.04,0.27-0.07,0.41-0.1    c0.03-0.01,0.05-0.01,0.08-0.01c0.88-0.18,1.79-0.17,2.66,0.01c0.45,0.09,0.89,0.22,1.31,0.39c0.42,0.18,0.83,0.4,1.21,0.65    c0.38,0.25,0.74,0.55,1.06,0.87C148.32,137.02,149.06,138.82,149.06,140.67z"/><path class="st6" d="M335.16,259.5h-44.49v-67.08c0-10.3-8.38-18.68-18.68-18.68h-33.07c-10.29,0-18.67,8.38-18.67,18.68v42.11    l-0.18-0.14c-0.52-0.41-1.04-0.82-1.55-1.27c-0.18-0.15-0.36-0.29-0.58-0.46c-28.31-25.23-48.56-49.51-60.19-72.19    c-1.77-3.43-5.99-4.79-9.43-3.03c-0.14,0.07-0.27,0.16-0.4,0.24c-0.14,0.09-0.3,0.17-0.43,0.26c-0.14,0.1-0.27,0.2-0.4,0.31    c-2.51,2.05-3.33,5.63-1.8,8.62c12.45,24.25,33.8,49.94,63.47,76.36c0.04,0.03,0.07,0.06,0.1,0.08c0.16,0.14,0.33,0.27,0.55,0.44    c0.69,0.61,1.36,1.13,2.01,1.64l0.96,0.76c0.85,0.67,1.73,1.37,2.71,2.07c0.92,0.65,1.79,1.21,2.64,1.74l0.09,0.06    c0.84,0.55,1.64,1.04,2.43,1.51v46.44l-9.89-9.89c-4.53-4.53-10.55-7.02-16.96-7.02c-6.4,0-12.42,2.49-16.95,7.02l-15.88,15.88    c-9.35,9.35-9.35,24.57,0,33.92l53.89,53.89c1.37,1.36,3.16,2.05,4.95,2.05c1.21,0,2.42-0.34,3.5-0.97    c0.15-0.09,0.3-0.16,0.44-0.26c0.14-0.09,0.27-0.19,0.41-0.3c0.21-0.16,0.41-0.33,0.6-0.53c2.74-2.73,2.74-7.16,0-9.89    l-53.89-53.89c-1.89-1.89-2.93-4.39-2.93-7.06c0-2.66,1.04-5.17,2.93-7.06l15.88-15.88c1.88-1.88,4.39-2.92,7.05-2.92    c2.67,0,5.18,1.04,7.06,2.92l21.84,21.84c2,2,5.01,2.6,7.63,1.52c2.62-1.08,4.32-3.64,4.32-6.47V192.42c0-2.58,2.1-4.68,4.67-4.68    h33.07c2.58,0,4.68,2.1,4.68,4.68v74.08c0,3.87,3.13,7,7,7h51.49c12.41,0,22.51,10.1,22.51,22.52v81.77l-10.59,31.83h-105.1    c-0.97,0-1.88,0.21-2.72,0.57c-0.16,0.07-0.33,0.13-0.48,0.21c-0.15,0.08-0.29,0.17-0.43,0.26c-2.01,1.23-3.37,3.43-3.37,5.96    v45.69c0,3.87,3.14,7,7,7h110.15c3.86,0,7-3.13,7-7v-44.55l12.18-36.63c0.24-0.71,0.36-1.46,0.36-2.21v-82.9    C371.67,275.88,355.29,259.5,335.16,259.5z M345.13,455.31h-96.15v-31.69h96.15V455.31z"/><path class="st6" d="M211.1,89.95c0.06,3.86-3.03,7.04-6.89,7.1c-5.27,0.07-10.19,2.19-13.85,5.96c-3.67,3.77-5.64,8.74-5.57,14    c0.04,2.56,0.37,5.3,0.98,8.15c0.82,3.78-1.57,7.5-5.35,8.32c-0.5,0.11-1,0.16-1.49,0.16c-3.23,0-6.13-2.24-6.84-5.52    c-0.81-3.75-1.25-7.42-1.3-10.91c-0.13-9,3.26-17.51,9.53-23.96s14.69-10.07,23.69-10.2h0.1    C207.93,83.05,211.05,86.12,211.1,89.95z"/><path class="st6" d="M401.03,188.5c-1.7,3.47-0.27,7.66,3.2,9.36l39.74,19.48c0.99,0.49,2.04,0.72,3.07,0.72    c2.59,0,5.08-1.44,6.29-3.92c1.71-3.48,0.27-7.67-3.2-9.37l-39.73-19.48C406.92,183.59,402.73,185.02,401.03,188.5z"/><path class="st6" d="M452.25,55.65l-27.66,11c-3.59,1.43-5.34,5.5-3.91,9.09c1.09,2.74,3.72,4.42,6.5,4.42    c0.86,0,1.74-0.16,2.59-0.5l27.66-11.01c3.59-1.43,5.34-5.5,3.91-9.09C459.91,55.97,455.84,54.22,452.25,55.65z"/><path class="st6" d="M430.3,126.14c-3.87,0-7,3.14-7,7c0,3.87,3.13,7,7,7h27.27c3.86,0,7-3.13,7-7c0-3.86-3.14-7-7-7H430.3z"/><path class="st6" d="M64.96,218.06c1.03,0,2.08-0.23,3.07-0.72l39.74-19.48c3.47-1.7,4.9-5.89,3.2-9.36    c-1.7-3.48-5.89-4.91-9.37-3.21l-39.73,19.48c-3.47,1.7-4.91,5.89-3.2,9.37C59.88,216.62,62.37,218.06,64.96,218.06z"/><path class="st6" d="M82.23,79.66c0.85,0.34,1.73,0.5,2.59,0.5c2.78,0,5.41-1.68,6.5-4.42c1.43-3.59-0.32-7.66-3.91-9.09    l-27.66-11c-3.6-1.43-7.67,0.32-9.09,3.91c-1.43,3.59,0.32,7.66,3.91,9.09L82.23,79.66z"/><path class="st6" d="M47.43,133.14c0,3.87,3.14,7,7,7H81.7c3.87,0,7-3.13,7-7c0-3.86-3.13-7-7-7H54.43    C50.57,126.14,47.43,129.28,47.43,133.14z"/></g></g></svg>