<?xml version="1.0" ?><svg data-name="Layer 1" id="Layer_1" viewBox="0 0 500 500" xmlns="http://www.w3.org/2000/svg" xmlns:xlink="http://www.w3.org/1999/xlink"><defs><style>.cls-1,.cls-5{fill:none;}.cls-2{fill:#2a73ff;}.cls-3{opacity:0.7;}.cls-4,.cls-6{fill:#fff;}.cls-5,.cls-6{stroke:#000;stroke-linejoin:round;stroke-width:15px;}.cls-7{clip-path:url(#clip-path);}</style><clipPath id="clip-path"><circle class="cls-1" cx="250" cy="250" r="239"/></clipPath></defs><title/><circle class="cls-2" cx="250" cy="250" r="239"/><g class="cls-3"><circle class="cls-4" cx="349.9" cy="173.8" r="40.11"/><path class="cls-4" d="M349.9,213.91h0a42.83,42.83,0,0,1,42.83,42.83v23.79a0,0,0,0,1,0,0H307.07a0,0,0,0,1,0,0V256.73a42.83,42.83,0,0,1,42.83-42.83Z"/></g><circle class="cls-5" cx="349.9" cy="173.8" r="40.11"/><path class="cls-5" d="M349.9,213.91h0a42.83,42.83,0,0,1,42.83,42.83v23.79a0,0,0,0,1,0,0H307.07a0,0,0,0,1,0,0V256.73a42.83,42.83,0,0,1,42.83-42.83Z"/><g class="cls-3"><circle class="cls-4" cx="150.1" cy="173.8" r="40.11"/><path class="cls-4" d="M107.28,213.91h85.65a0,0,0,0,1,0,0V237.7a42.83,42.83,0,0,1-42.83,42.83h0a42.83,42.83,0,0,1-42.83-42.83V213.91A0,0,0,0,1,107.28,213.91Z" transform="translate(300.21 494.43) rotate(180)"/></g><circle class="cls-5" cx="150.1" cy="173.8" r="40.11"/><path class="cls-5" d="M107.28,213.91h85.65a0,0,0,0,1,0,0V237.7a42.83,42.83,0,0,1-42.83,42.83h0a42.83,42.83,0,0,1-42.83-42.83V213.91A0,0,0,0,1,107.28,213.91Z" transform="translate(300.21 494.43) rotate(180)"/><circle class="cls-6" cx="250" cy="143.74" r="40.11"/><path class="cls-6" d="M250,183.84h0a42.83,42.83,0,0,1,42.83,42.83V281.5a0,0,0,0,1,0,0H207.17a0,0,0,0,1,0,0V226.67A42.83,42.83,0,0,1,250,183.84Z"/><g class="cls-7"><rect class="cls-6" height="233" width="303" x="98.5" y="328.5"/></g><rect class="cls-6" height="52.6" width="345" x="77.5" y="278.46"/><line class="cls-6" x1="129.5" x2="129.5" y1="338.5" y2="431.5"/><line class="cls-6" x1="367.5" x2="367.5" y1="339" y2="432"/></svg>