<?xml version="1.0" ?><!DOCTYPE svg  PUBLIC '-//W3C//DTD SVG 1.1//EN'  'http://www.w3.org/Graphics/SVG/1.1/DTD/svg11.dtd'><svg height="512px" style="enable-background:new 0 0 512 512;" version="1.1" viewBox="0 0 512 512" width="512px" xml:space="preserve" xmlns="http://www.w3.org/2000/svg" xmlns:xlink="http://www.w3.org/1999/xlink"><g id="_x34_96_x2C__bulb_x2C__energy_x2C__idea_x2C__solution"><g><rect height="30" style="fill:#95A5A5;" width="60" x="236" y="456"/><polygon points="243.25,463.583 296,463.583 296,456 236,456 236,486 243.25,486   " style="fill:#7E8C8D;"/><polygon points="316,426 316,456 296,456 236,456 206,456 206,426   " style="fill:#57606F;"/><polygon points="213.583,433.75 316,433.75 316,426 206,426 206,456 213.583,456   " style="fill:#414A56;"/><polygon points="316,396 316,426 206,426 206,396 246,396 276,396   " style="fill:#95A5A5;"/><polygon points="212.625,402.583 252.625,402.583 282.625,402.583 316,402.583 316,396 276,396 246,396     206,396 206,426 212.625,426   " style="fill:#7E8C8D;"/><path d="M316,341.35V396h-40v-41.53C290.23,352.27,303.69,347.77,316,341.35z" style="fill:#FEBE76;"/><path d="M282.125,359.97c11.909-1.841,23.268-5.313,33.875-10.153v-8.467c-12.31,6.42-25.77,10.92-40,13.12    V396h6.125V359.97z" style="fill:#E8A664;"/><path d="M246,355.62V396h-40v-49.97C218.47,351.24,231.92,354.55,246,355.62z" style="fill:#FEBE76;"/><path d="M212.25,354.863c10.611,4.434,21.936,7.475,33.75,8.947v-8.19c-14.08-1.07-27.53-4.38-40-9.59V396    h6.25V354.863z" style="fill:#E8A664;"/><path d="M276,354.47V396h-30v-40.38c3.3,0.25,6.63,0.38,10,0.38C262.8,356,269.48,355.48,276,354.47z" style="fill:#FCD884;"/><path d="M252.125,362.151c3.3,0.25,6.63,0.38,10,0.38c4.688,0,9.314-0.264,13.875-0.749v-7.313    c-6.52,1.011-13.2,1.53-20,1.53c-3.37,0-6.7-0.13-10-0.38V396h6.125V362.151z" style="fill:#EABF6A;"/><path d="M276,246v108.47c-6.52,1.011-13.2,1.53-20,1.53c-3.37,0-6.7-0.13-10-0.38V246H276z" style="fill:#FEBE76;"/><path d="M253.93,254.75H276V246h-30v109.62c2.62,0.198,5.267,0.298,7.93,0.34V254.75z" style="fill:#E8A664;"/><path d="M256,96c71.8,0,130,58.2,130,130c0,0.87-0.01,1.73-0.03,2.6c0,0.45-0.02,0.9-0.029,1.35    c-0.011,0.36-0.021,0.72-0.04,1.08c-0.021,0.66-0.051,1.32-0.091,1.98c-0.04,0.76-0.079,1.52-0.14,2.27    c-0.05,0.79-0.11,1.58-0.18,2.37c-0.07,0.76-0.15,1.51-0.23,2.27c-0.08,0.76-0.17,1.52-0.26,2.28c-0.08,0.66-0.17,1.32-0.26,1.98    c-0.13,0.92-0.271,1.84-0.42,2.75c-0.08,0.52-0.17,1.03-0.261,1.55c-0.18,1.04-0.369,2.07-0.579,3.1    c-0.11,0.59-0.24,1.19-0.37,1.78c-0.16,0.75-0.32,1.5-0.5,2.25c-0.17,0.74-0.351,1.46-0.53,2.19c-0.16,0.65-0.33,1.3-0.5,1.94    c-0.03,0.12-0.061,0.24-0.09,0.35c-0.19,0.69-0.38,1.37-0.58,2.04c-0.2,0.72-0.42,1.43-0.641,2.15    c-0.189,0.63-0.39,1.27-0.6,1.899c-0.06,0.181-0.11,0.351-0.18,0.53c-0.181,0.58-0.38,1.15-0.57,1.72    c-0.26,0.761-0.53,1.521-0.81,2.271c-0.24,0.66-0.49,1.33-0.75,1.99c-0.54,1.409-1.101,2.8-1.69,4.18    c-0.28,0.649-0.56,1.3-0.85,1.95c-0.301,0.67-0.601,1.34-0.91,2.01c-0.36,0.77-0.73,1.53-1.101,2.29    c-0.239,0.479-0.47,0.96-0.72,1.439c-0.439,0.881-0.89,1.75-1.359,2.62c-0.271,0.5-0.54,1-0.811,1.49    c-0.35,0.64-0.71,1.28-1.08,1.92c-0.28,0.49-0.56,0.98-0.85,1.47c-0.83,1.4-1.681,2.78-2.561,4.141    c-0.39,0.62-0.79,1.229-1.199,1.83c-0.25,0.39-0.511,0.779-0.78,1.16c-0.181,0.26-0.36,0.52-0.54,0.779    c-0.29,0.431-0.59,0.86-0.9,1.28c-0.26,0.38-0.54,0.76-0.81,1.13c-2.38,3.29-4.92,6.45-7.601,9.49    c-0.449,0.52-0.909,1.03-1.369,1.54c-2.54,2.8-5.211,5.479-7.99,8.05c-0.45,0.42-0.9,0.83-1.36,1.24    c-0.399,0.359-0.8,0.72-1.2,1.069c-2.16,1.9-4.399,3.73-6.689,5.49c-0.351,0.26-0.7,0.53-1.061,0.79    c-0.88,0.67-1.77,1.33-2.68,1.96c-0.38,0.28-0.77,0.55-1.17,0.82c-0.9,0.64-1.811,1.26-2.74,1.86    c-0.609,0.399-1.22,0.8-1.84,1.189c-1.23,0.78-2.48,1.54-3.74,2.28c-0.63,0.37-1.26,0.729-1.899,1.09    c-0.63,0.36-1.261,0.71-1.891,1.06c-0.01,0-0.02,0.011-0.029,0.011c-0.641,0.35-1.29,0.689-1.94,1.029    c-12.31,6.42-25.77,10.92-40,13.12V246h-30v109.62c-14.08-1.07-27.53-4.38-40-9.59c-1.47-0.61-2.92-1.25-4.36-1.91    c-0.72-0.34-1.44-0.67-2.15-1.021c-0.72-0.34-1.42-0.689-2.13-1.05c-0.65-0.33-1.29-0.66-1.94-1c-0.07-0.04-0.15-0.069-0.22-0.12    c-0.68-0.359-1.36-0.729-2.03-1.1c-0.17-0.09-0.34-0.18-0.51-0.28c-0.52-0.29-1.04-0.59-1.55-0.88c-0.63-0.36-1.25-0.729-1.87-1.1    c-0.74-0.44-1.46-0.88-2.18-1.34c-0.67-0.41-1.33-0.841-1.99-1.271c-0.58-0.38-1.17-0.77-1.75-1.16    c-0.44-0.29-0.87-0.59-1.29-0.89c-0.43-0.29-0.86-0.59-1.28-0.9c-3.7-2.62-7.26-5.439-10.65-8.439    c-0.51-0.44-1.01-0.891-1.51-1.34c-4.23-3.851-8.21-7.971-11.9-12.341c-0.66-0.779-1.31-1.569-1.95-2.359    c-1.32-1.63-2.6-3.3-3.84-5.011c-0.61-0.84-1.22-1.689-1.81-2.55c-1.58-2.27-3.09-4.6-4.52-6.979c-0.4-0.66-0.79-1.311-1.18-1.98    c-0.4-0.71-0.81-1.43-1.21-2.149c-0.33-0.601-0.66-1.21-0.99-1.83c-0.43-0.811-0.86-1.62-1.27-2.44    c-0.34-0.67-0.67-1.34-0.99-2.01c-0.04-0.07-0.07-0.15-0.11-0.22c-0.31-0.641-0.61-1.28-0.91-1.931    c-0.33-0.72-0.66-1.439-0.98-2.17c-0.24-0.55-0.48-1.1-0.71-1.66c-0.19-0.439-0.38-0.89-0.56-1.34c-1.22-2.97-2.33-6-3.33-9.08    c-0.39-1.21-0.77-2.439-1.13-3.67c-0.23-0.77-0.45-1.55-0.66-2.33c-0.01-0.04-0.02-0.09-0.04-0.14c-0.19-0.73-0.39-1.46-0.57-2.2    c-0.2-0.78-0.39-1.57-0.57-2.36c-0.21-0.88-0.4-1.75-0.58-2.64c-0.15-0.7-0.3-1.42-0.43-2.13c-0.01-0.03-0.02-0.07-0.02-0.1    c-0.15-0.76-0.29-1.53-0.42-2.31c-0.13-0.72-0.25-1.45-0.36-2.18c-0.04-0.21-0.07-0.42-0.1-0.63c-0.1-0.68-0.2-1.36-0.29-2.05    c-0.11-0.81-0.21-1.63-0.3-2.45c-0.01-0.02-0.01-0.04-0.01-0.06c-0.09-0.8-0.18-1.6-0.25-2.41c-0.07-0.72-0.14-1.44-0.19-2.16    c-0.02-0.22-0.04-0.44-0.05-0.66c-0.06-0.71-0.1-1.43-0.14-2.15c-0.05-0.78-0.09-1.57-0.11-2.36c-0.01-0.11-0.02-0.21-0.02-0.31    c-0.02-0.66-0.04-1.32-0.06-1.98c0-0.3-0.01-0.59-0.01-0.89c-0.01-0.67-0.02-1.34-0.02-2.01C126,154.2,184.2,96,256,96z" style="fill:#FCD884;"/><g><g><g><path d="M149.119,299.865c-0.43-0.811-0.86-1.619-1.27-2.439c-0.34-0.67-0.67-1.34-0.99-2.01       c-0.04-0.07-0.07-0.15-0.11-0.221c-0.31-0.641-0.61-1.279-0.91-1.93c-0.33-0.721-0.66-1.439-0.98-2.17       c-0.24-0.551-0.48-1.1-0.71-1.66c-0.19-0.439-0.38-0.891-0.56-1.34c-1.22-2.971-2.33-6-3.33-9.08       c-0.39-1.211-0.77-2.439-1.13-3.67c-0.23-0.77-0.45-1.551-0.66-2.33c-0.01-0.041-0.02-0.09-0.04-0.141       c-0.19-0.73-0.39-1.459-0.57-2.199c-0.2-0.781-0.39-1.57-0.57-2.36c-0.21-0.88-0.4-1.75-0.58-2.64       c-0.15-0.7-0.3-1.42-0.43-2.131c-0.01-0.029-0.02-0.069-0.02-0.1c-0.15-0.76-0.29-1.529-0.42-2.311       c-0.13-0.719-0.25-1.449-0.36-2.18c-0.04-0.209-0.07-0.42-0.1-0.629c-0.1-0.681-0.2-1.361-0.29-2.051       c-0.11-0.81-0.21-1.63-0.3-2.45c-0.01-0.02-0.01-0.04-0.01-0.06c-0.09-0.8-0.18-1.6-0.25-2.41c-0.07-0.72-0.14-1.44-0.19-2.16       c-0.02-0.22-0.04-0.44-0.05-0.66c-0.06-0.71-0.1-1.43-0.14-2.15c-0.05-0.78-0.09-1.57-0.11-2.36       c-0.01-0.11-0.02-0.21-0.02-0.31c-0.02-0.66-0.04-1.32-0.06-1.98c0-0.3-0.01-0.59-0.01-0.89c-0.01-0.67-0.02-1.34-0.02-2.01       c0-71.8,58.2-130,130-130c44.081,0,83.03,21.942,106.538,55.497C348.503,123.645,305.483,96,256,96c-71.8,0-130,58.2-130,130       c0,0.67,0.01,1.34,0.02,2.01c0,0.3,0.01,0.59,0.01,0.89c0.02,0.66,0.04,1.32,0.06,1.98c0,0.1,0.01,0.2,0.02,0.31       c0.02,0.79,0.06,1.58,0.11,2.36c0.04,0.72,0.08,1.44,0.14,2.15c0.01,0.22,0.03,0.44,0.05,0.66c0.05,0.72,0.12,1.44,0.19,2.16       c0.07,0.81,0.16,1.61,0.25,2.41c0,0.02,0,0.04,0.01,0.06c0.09,0.82,0.19,1.64,0.3,2.45c0.09,0.69,0.19,1.37,0.29,2.05       c0.03,0.21,0.06,0.42,0.1,0.63c0.11,0.73,0.23,1.46,0.36,2.18c0.13,0.78,0.27,1.55,0.42,2.31c0,0.03,0.01,0.07,0.02,0.1       c0.13,0.71,0.28,1.43,0.43,2.13c0.18,0.89,0.37,1.76,0.58,2.64c0.18,0.79,0.37,1.58,0.57,2.36c0.18,0.74,0.38,1.47,0.57,2.2       c0.02,0.05,0.03,0.1,0.04,0.14c0.21,0.78,0.43,1.561,0.66,2.33c0.36,1.23,0.74,2.46,1.13,3.67c1,3.08,2.11,6.11,3.33,9.08       c0.18,0.45,0.37,0.9,0.56,1.34c0.23,0.561,0.47,1.11,0.71,1.66c0.32,0.73,0.65,1.45,0.98,2.17c0.3,0.65,0.6,1.29,0.91,1.931       c0.04,0.069,0.07,0.149,0.11,0.22c0.32,0.67,0.65,1.34,0.99,2.01c0.41,0.82,0.84,1.63,1.27,2.44       c0.33,0.62,0.66,1.229,0.99,1.83c0.4,0.72,0.81,1.439,1.21,2.149c0.39,0.67,0.78,1.32,1.18,1.98       c1.43,2.38,2.94,4.71,4.52,6.979c0.118,0.172,0.242,0.338,0.361,0.509C149.34,300.272,149.229,300.073,149.119,299.865z" style="fill:#EABF6A;"/></g></g></g><path d="M385.904,236.03c-0.091,0-0.183-0.002-0.274-0.007c-2.758-0.15-4.872-2.506-4.722-5.264    c0.015-0.286,0.023-0.572,0.031-0.858l0.015-0.545c0.008-0.252,0.016-0.504,0.016-0.755c0-2.761,2.238-5,5-5s5,2.239,5,5    c0,0.348-0.01,0.696-0.02,1.044l-0.011,0.414c0,0.013-0.004,0.125-0.004,0.138c-0.011,0.368-0.022,0.736-0.043,1.104    C390.748,233.966,388.542,236.03,385.904,236.03z"/><path d="M385.676,240.28c-0.136,0-0.271-0.006-0.408-0.017c-2.753-0.222-4.804-2.634-4.581-5.386    c0.054-0.673,0.089-1.354,0.125-2.036l4.998,0.168l4.993,0.263c-0.046,0.87-0.087,1.644-0.149,2.409    C390.442,238.298,388.255,240.28,385.676,240.28z"/><path d="M385.266,244.92c-0.175,0-0.352-0.009-0.53-0.028c-2.746-0.29-4.737-2.75-4.448-5.497l0.021-0.198    c0.07-0.671,0.141-1.335,0.203-2.008c0.254-2.75,2.676-4.776,5.439-4.518c2.749,0.254,4.772,2.689,4.518,5.439    c-0.066,0.716-0.141,1.423-0.216,2.137l-0.021,0.197C389.962,243.012,387.792,244.92,385.266,244.92z"/><path d="M384.746,249.181c-0.225,0-0.451-0.015-0.68-0.046c-2.736-0.372-4.653-2.892-4.28-5.628    c0.086-0.636,0.173-1.272,0.25-1.908c0.334-2.74,2.812-4.69,5.566-4.361c2.741,0.333,4.693,2.825,4.361,5.566    c-0.083,0.684-0.176,1.368-0.27,2.052C389.354,247.362,387.208,249.181,384.746,249.181z"/><path d="M384.065,253.481c-0.285,0-0.575-0.025-0.866-0.076c-2.72-0.475-4.54-3.065-4.065-5.786l0.019-0.103    c0.079-0.451,0.156-0.895,0.227-1.347c0.42-2.729,2.973-4.601,5.702-4.181c2.729,0.42,4.602,2.974,4.181,5.703    c-0.08,0.52-0.168,1.029-0.259,1.547l-0.018,0.103C388.561,251.77,386.449,253.481,384.065,253.481z"/><path d="M383.115,258.361c-0.356,0-0.718-0.039-1.08-0.118c-2.697-0.594-4.401-3.262-3.808-5.958    c0.118-0.538,0.237-1.086,0.338-1.624c0.509-2.715,3.115-4.5,5.835-3.995c2.714,0.508,4.503,3.12,3.995,5.834    c-0.12,0.642-0.261,1.294-0.402,1.936C387.479,256.77,385.411,258.361,383.115,258.361z"/><path d="M381.583,264.741c-0.424,0-0.855-0.054-1.285-0.168c-2.669-0.708-4.259-3.445-3.551-6.115    c0.162-0.611,0.325-1.232,0.479-1.854l0.094-0.381c0.142-0.575,0.283-1.147,0.418-1.732c0.618-2.692,3.304-4.37,5.992-3.754    c2.691,0.618,4.372,3.3,3.754,5.992c-0.146,0.64-0.301,1.266-0.456,1.894l-0.093,0.374c-0.167,0.679-0.344,1.356-0.521,2.026    C385.819,263.262,383.796,264.741,381.583,264.741z"/><path d="M379.671,271.181c-0.524,0-1.058-0.083-1.582-0.258c-2.62-0.873-4.035-3.705-3.162-6.324    c0.194-0.583,0.379-1.176,0.555-1.759l0.069-0.227c0.187-0.609,0.372-1.213,0.542-1.823c0.217-0.729,0.396-1.374,0.577-2.029    c0.735-2.663,3.494-4.225,6.149-3.491c2.662,0.734,4.226,3.487,3.491,6.149c-0.2,0.726-0.399,1.439-0.609,2.143    c-0.167,0.603-0.377,1.289-0.59,1.982l-0.061,0.2c-0.196,0.653-0.412,1.34-0.638,2.017    C383.715,269.855,381.764,271.181,379.671,271.181z"/><path d="M378.921,273.431c-0.526,0-1.061-0.083-1.587-0.259c-2.619-0.876-4.032-3.709-3.156-6.328l0.167-0.494    c0.126-0.373,0.254-0.747,0.372-1.126c0.822-2.637,3.633-4.106,6.26-3.287c2.637,0.82,4.108,3.624,3.287,6.26    c-0.143,0.458-0.295,0.91-0.447,1.36l-0.154,0.459C382.962,272.108,381.012,273.431,378.921,273.431z"/><path d="M377.359,277.691c-0.609,0-1.229-0.111-1.83-0.349c-2.569-1.011-3.833-3.913-2.821-6.483    c0.243-0.62,0.479-1.249,0.704-1.869c0.944-2.596,3.816-3.935,6.408-2.988c2.595,0.944,3.933,3.813,2.988,6.408    c-0.255,0.7-0.52,1.411-0.796,2.111C381.238,276.489,379.354,277.691,377.359,277.691z"/><path d="M373.907,285.831c-0.702,0-1.415-0.148-2.095-0.462c-2.507-1.158-3.6-4.13-2.441-6.637    c0.274-0.592,0.54-1.185,0.806-1.776l0.082-0.184c0.243-0.545,0.483-1.103,0.724-1.658l0.097-0.226    c1.095-2.537,4.04-3.702,6.572-2.609c2.535,1.095,3.703,4.037,2.609,6.572l-0.097,0.224c-0.256,0.593-0.513,1.188-0.777,1.781    l-0.087,0.194c-0.281,0.625-0.562,1.251-0.851,1.877C377.604,284.755,375.796,285.831,373.907,285.831z"/><path d="M372.086,289.561c-0.779,0-1.569-0.183-2.308-0.567c-2.448-1.276-3.398-4.297-2.122-6.745    c0.153-0.294,0.298-0.589,0.443-0.883l0.236-0.478c1.232-2.471,4.234-3.478,6.706-2.241c2.471,1.232,3.475,4.235,2.241,6.706    l-0.214,0.434c-0.179,0.361-0.357,0.724-0.546,1.085C375.632,288.581,373.89,289.561,372.086,289.561z"/><path d="M369.915,293.671c-0.816,0-1.645-0.2-2.411-0.623c-2.417-1.334-3.296-4.376-1.962-6.794    c0.228-0.411,0.454-0.83,0.681-1.25l0.11-0.203c1.313-2.429,4.347-3.335,6.776-2.019c2.429,1.313,3.333,4.348,2.019,6.776    l-0.108,0.202c-0.241,0.444-0.481,0.889-0.722,1.325C373.386,292.737,371.678,293.671,369.915,293.671z"/><path d="M367.985,297.061c-0.867,0-1.745-0.226-2.545-0.7c-2.375-1.408-3.159-4.475-1.751-6.851    c0.253-0.428,0.498-0.855,0.742-1.284l0.067-0.117c1.371-2.396,4.426-3.229,6.822-1.859c2.397,1.371,3.229,4.425,1.859,6.822    l-0.066,0.116c-0.271,0.475-0.542,0.948-0.823,1.422C371.357,296.185,369.693,297.061,367.985,297.061z"/><path d="M364.226,303.03c-0.969,0-1.948-0.281-2.811-0.868c-2.282-1.555-2.871-4.665-1.316-6.947    c0.374-0.55,0.741-1.107,1.098-1.675c1.468-2.338,4.556-3.043,6.894-1.573c2.338,1.469,3.043,4.556,1.573,6.894    c-0.423,0.673-0.856,1.334-1.301,1.985C367.395,302.266,365.824,303.03,364.226,303.03z"/><path d="M362.905,304.97c-0.98,0-1.972-0.287-2.84-0.888c-2.271-1.571-2.838-4.686-1.268-6.957l0.548-0.789    c1.575-2.267,4.691-2.828,6.959-1.25c2.268,1.576,2.827,4.692,1.25,6.959l-0.532,0.77    C366.052,304.217,364.491,304.97,362.905,304.97z"/><path d="M361.196,307.38c-1.052,0-2.111-0.33-3.015-1.014c-2.201-1.667-2.635-4.804-0.968-7.005    c0.231-0.306,0.454-0.62,0.669-0.934c1.558-2.278,4.669-2.865,6.949-1.305c2.279,1.559,2.863,4.67,1.305,6.949    c-0.305,0.446-0.621,0.892-0.95,1.326C364.203,306.696,362.709,307.38,361.196,307.38z"/><path d="M352.229,318.41c-1.193,0-2.392-0.425-3.348-1.288c-2.05-1.85-2.213-5.012-0.362-7.062    c0.437-0.483,0.873-0.968,1.299-1.461c1.807-2.089,4.965-2.316,7.053-0.512c2.089,1.807,2.317,4.964,0.512,7.053    c-0.473,0.546-0.956,1.083-1.439,1.619C354.956,317.854,353.595,318.41,352.229,318.41z"/><path d="M341.682,328.77c-1.394,0-2.779-0.579-3.769-1.711c-1.816-2.08-1.603-5.239,0.478-7.056c0.379-0.33,0.757-0.67,1.134-1.01    c0.46-0.41,0.883-0.795,1.306-1.189c2.018-1.883,5.184-1.772,7.066,0.246c1.884,2.019,1.773,5.183-0.246,7.066    c-0.478,0.445-0.955,0.881-1.442,1.315c-0.409,0.368-0.824,0.741-1.239,1.104C344.021,328.363,342.849,328.77,341.682,328.77z"/><path d="M333.934,335.05c-1.553,0-3.083-0.721-4.06-2.076c-1.615-2.24-1.108-5.365,1.132-6.979    c0.195-0.142,0.387-0.286,0.577-0.43l0.431-0.322c2.218-1.644,5.35-1.178,6.994,1.041c1.644,2.219,1.178,5.35-1.041,6.994    l-0.366,0.274c-0.246,0.186-0.494,0.372-0.747,0.554C335.969,334.743,334.946,335.05,333.934,335.05z"/><path d="M330.085,337.83c-1.584,0-3.141-0.75-4.112-2.148c-1.574-2.269-1.013-5.384,1.256-6.959l0.149-0.104    c0.317-0.22,0.636-0.44,0.952-0.668c2.241-1.611,5.366-1.104,6.979,1.139c1.613,2.242,1.103,5.366-1.139,6.979    c-0.364,0.262-0.729,0.515-1.092,0.768l-0.146,0.102C332.063,337.541,331.068,337.83,330.085,337.83z"/><path d="M318.03,345.269c-1.764,0-3.479-0.917-4.389-2.557c-1.341-2.414-0.513-5.434,1.901-6.774l0.087-0.048    c0.582-0.323,1.165-0.646,1.748-0.979c0.642-0.361,1.245-0.706,1.849-1.061c1.257-0.738,2.467-1.477,3.596-2.192    c0.599-0.376,1.171-0.751,1.741-1.125l5.518,8.34c-0.66,0.433-1.285,0.842-1.921,1.241c-1.207,0.766-2.514,1.563-3.867,2.357    c-0.656,0.386-1.313,0.76-1.979,1.136c-0.591,0.338-1.212,0.683-1.832,1.027C319.708,345.063,318.863,345.269,318.03,345.269z"/><path d="M316,461h-20c-2.762,0-5-2.238-5-5s2.238-5,5-5h15V341.35c0-1.861,1.034-3.569,2.685-4.432    c0.623-0.326,1.246-0.651,1.86-0.986c2.428-1.322,5.463-0.429,6.784,1.993c1.194,2.188,0.583,4.875-1.329,6.351V456    C321,458.762,318.762,461,316,461z"/><path d="M236,461h-30c-2.761,0-5-2.238-5-5V349.318c-0.471-0.21-0.951-0.428-1.444-0.653l-0.631-0.296    c-0.552-0.259-1.103-0.517-1.648-0.786c-0.684-0.322-1.426-0.692-2.18-1.074c-0.668-0.34-1.326-0.679-1.994-1.028    c-2.447-1.279-3.394-4.301-2.114-6.748c1.279-2.447,4.299-3.394,6.748-2.113c0.632,0.33,1.255,0.651,1.887,0.973    c0.666,0.338,1.323,0.667,2,0.986c0.563,0.277,1.052,0.505,1.542,0.734l0.608,0.286c1.451,0.664,2.822,1.266,4.143,1.813    c1.867,0.775,3.083,2.598,3.083,4.618V451h25c2.761,0,5,2.238,5,5S238.761,461,236,461z"/><path d="M195.196,345.931c-0.788,0-1.586-0.187-2.332-0.58c-0.708-0.374-1.415-0.759-2.112-1.144    c-2.417-1.336-3.294-4.378-1.958-6.795s4.378-3.292,6.794-1.959c0.643,0.355,1.295,0.711,1.948,1.056    c2.441,1.29,3.375,4.315,2.085,6.757C198.725,344.962,196.99,345.931,195.196,345.931z"/><path d="M192.656,344.551c-0.824,0-1.66-0.204-2.431-0.634c-0.378-0.212-0.757-0.428-1.132-0.642l-0.454-0.259    c-0.669-0.383-1.316-0.768-1.963-1.153c-2.371-1.417-3.145-4.486-1.729-6.857c1.416-2.37,4.485-3.145,6.856-1.729    c0.593,0.354,1.186,0.708,1.789,1.053l0.458,0.261c0.346,0.198,0.695,0.397,1.045,0.592c2.412,1.346,3.276,4.391,1.931,6.803    C196.112,343.626,194.41,344.551,192.656,344.551z"/><path d="M187.055,341.231c-0.89,0-1.791-0.238-2.606-0.736c-0.686-0.42-1.362-0.859-2.038-1.3    c-0.68-0.444-1.287-0.846-1.885-1.248c-2.291-1.543-2.897-4.649-1.354-6.94c1.544-2.29,4.65-2.896,6.94-1.354    c0.563,0.379,1.136,0.757,1.698,1.126c0.655,0.426,1.253,0.816,1.86,1.188c2.355,1.442,3.095,4.521,1.653,6.875    C190.381,340.382,188.738,341.231,187.055,341.231z"/><path d="M182.025,337.911c-0.962,0-1.935-0.277-2.793-0.856c-0.489-0.33-0.978-0.672-1.456-1.024    c-2.22-1.643-2.689-4.773-1.047-6.993c1.642-2.221,4.773-2.689,6.993-1.048c0.362,0.269,0.733,0.526,1.104,0.776    c2.289,1.545,2.892,4.653,1.347,6.942C185.208,337.139,183.631,337.911,182.025,337.911z"/><path d="M170.098,328.57c-1.157,0-2.32-0.399-3.265-1.215c-0.51-0.44-1.011-0.891-1.512-1.34c-2.054-1.846-2.26-5.04-0.414-7.094    c1.846-2.055,4.97-2.254,7.024-0.411l0.073,0.066c0.451,0.405,0.902,0.811,1.362,1.208c2.09,1.805,2.322,4.962,0.518,7.052    C172.896,327.982,171.501,328.57,170.098,328.57z"/><path d="M156.692,314.89c-1.419,0-2.829-0.601-3.817-1.769c-0.691-0.814-1.371-1.631-2.04-2.468    c-1.725-2.156-1.375-5.303,0.782-7.028c2.157-1.724,5.304-1.373,7.028,0.782c0.61,0.763,1.23,1.507,1.86,2.251    c1.785,2.106,1.524,5.262-0.583,7.047C158.982,314.501,157.834,314.89,156.692,314.89z"/><path d="M150.904,307.52c-1.533,0-3.046-0.702-4.026-2.03c-0.654-0.886-1.288-1.782-1.91-2.69    c-1.563-2.277-0.983-5.39,1.293-6.952c2.278-1.562,5.39-0.982,6.952,1.294c0.558,0.813,1.124,1.615,1.71,2.409    c1.64,2.222,1.169,5.352-1.052,6.992C152.977,307.201,151.936,307.52,150.904,307.52z"/><path d="M144.575,297.991c-1.691,0-3.341-0.858-4.281-2.41c-0.416-0.686-0.821-1.361-1.226-2.058    c-1.388-2.387-0.579-5.447,1.809-6.836c2.387-1.388,5.448-0.578,6.836,1.809c0.375,0.644,0.75,1.269,1.134,1.903    c1.431,2.362,0.676,5.437-1.686,6.867C146.351,297.757,145.457,297.991,144.575,297.991z"/><path d="M142.185,293.861c-1.765,0-3.476-0.937-4.386-2.593c-0.341-0.62-0.681-1.249-1.022-1.889    c-1.298-2.438-0.374-5.466,2.064-6.764c2.436-1.298,5.465-0.374,6.763,2.064c0.319,0.601,0.639,1.19,0.958,1.771    c1.33,2.42,0.446,5.46-1.974,6.79C143.825,293.662,142.999,293.861,142.185,293.861z"/><path d="M139.924,289.591c-1.824,0-3.582-1.001-4.463-2.739c-0.358-0.706-0.706-1.411-1.043-2.117    c-1.189-2.492-0.134-5.477,2.358-6.666c2.493-1.19,5.476-0.135,6.667,2.357c0.303,0.634,0.615,1.269,0.937,1.902    c1.25,2.462,0.266,5.472-2.197,6.721C141.457,289.417,140.685,289.591,139.924,289.591z"/><path d="M138.823,287.361c-1.857,0-3.641-1.039-4.504-2.822c-0.324-0.669-0.637-1.337-0.95-2.017    c-0.346-0.754-0.688-1.5-1.019-2.257c-1.108-2.53,0.045-5.479,2.575-6.586c2.528-1.11,5.477,0.044,6.585,2.574    c0.308,0.704,0.626,1.397,0.945,2.092c0.282,0.612,0.569,1.224,0.865,1.836c1.203,2.486,0.164,5.477-2.322,6.68    C140.296,287.2,139.554,287.361,138.823,287.361z"/><path d="M136.223,281.601c-1.933,0-3.773-1.127-4.59-3.013c-0.209-0.483-0.418-0.979-0.616-1.475    c-1.024-2.564,0.226-5.474,2.79-6.497c2.566-1.026,5.474,0.226,6.497,2.79c0.162,0.405,0.333,0.81,0.504,1.205    c1.098,2.534-0.066,5.479-2.6,6.576C137.561,281.468,136.886,281.601,136.223,281.601z"/><path d="M132.329,271.181c-2.112,0-4.075-1.349-4.758-3.467c-0.404-1.253-0.797-2.526-1.17-3.801    c-0.235-0.785-0.468-1.609-0.689-2.435c-0.718-2.666,0.862-5.41,3.529-6.127c2.67-0.717,5.41,0.863,6.127,3.529    c0.198,0.735,0.406,1.472,0.623,2.197c0.355,1.215,0.722,2.4,1.098,3.567c0.847,2.628-0.596,5.445-3.225,6.293    C133.354,271.103,132.837,271.181,132.329,271.181z"/><path d="M130.497,265.041c-2.222,0-4.25-1.492-4.835-3.743l-0.174-0.66c-0.142-0.536-0.284-1.075-0.416-1.618    c-0.195-0.761-0.396-1.594-0.586-2.428c-0.614-2.692,1.071-5.373,3.763-5.987s5.373,1.071,5.987,3.763    c0.17,0.746,0.349,1.492,0.539,2.229c0.131,0.541,0.257,1.013,0.381,1.484l0.184,0.701c0.695,2.672-0.908,5.402-3.581,6.097    C131.336,264.989,130.913,265.041,130.497,265.041z"/><path d="M128.775,257.841c-2.307,0-4.381-1.606-4.884-3.954c-0.16-0.748-0.32-1.519-0.459-2.277    c-0.497-2.716,1.302-5.321,4.019-5.818c2.717-0.499,5.321,1.302,5.818,4.019c0.121,0.661,0.261,1.331,0.4,1.982    c0.579,2.7-1.142,5.358-3.842,5.936C129.474,257.805,129.122,257.841,128.775,257.841z"/><path d="M128.325,255.611c-2.34,0-4.43-1.651-4.9-4.033c-0.16-0.808-0.309-1.627-0.447-2.457    c-0.127-0.697-0.254-1.475-0.372-2.253c-0.413-2.73,1.466-5.279,4.196-5.691c2.73-0.413,5.279,1.466,5.691,4.196    c0.103,0.682,0.215,1.364,0.336,2.036c0.134,0.801,0.265,1.522,0.405,2.233c0.535,2.709-1.228,5.339-3.938,5.873    C128.971,255.58,128.646,255.611,128.325,255.611z"/><path d="M127.444,250.491c-2.439,0-4.575-1.787-4.94-4.272c-0.104-0.708-0.208-1.415-0.301-2.133    c-0.112-0.823-0.217-1.685-0.312-2.547c-0.303-2.745,1.677-5.215,4.422-5.518c2.736-0.306,5.215,1.677,5.517,4.422    c0.086,0.777,0.18,1.555,0.285,2.323c0.09,0.691,0.187,1.344,0.283,1.997c0.402,2.732-1.487,5.272-4.219,5.675    C127.932,250.473,127.686,250.491,127.444,250.491z"/><path d="M126.844,245.931c-2.51,0-4.674-1.886-4.962-4.439c-0.095-0.844-0.189-1.688-0.263-2.542    c-0.07-0.71-0.144-1.477-0.197-2.245c-0.19-2.754,1.889-5.142,4.644-5.333c2.753-0.184,5.142,1.889,5.333,4.644    c0.046,0.673,0.112,1.346,0.178,2.019c0.071,0.822,0.156,1.579,0.242,2.335c0.31,2.744-1.664,5.22-4.407,5.529    C127.221,245.92,127.031,245.931,126.844,245.931z"/><path d="M126.354,240.701c-2.57,0-4.756-1.971-4.977-4.579c-0.064-0.758-0.107-1.528-0.15-2.298    c-0.051-0.796-0.094-1.652-0.116-2.507c-0.07-2.76,2.111-5.055,4.872-5.125c2.766-0.036,5.055,2.111,5.125,4.872    c0.018,0.725,0.055,1.449,0.102,2.165c0.04,0.718,0.076,1.389,0.132,2.051c0.232,2.751-1.81,5.171-4.561,5.404    C126.638,240.694,126.496,240.701,126.354,240.701z"/><path d="M126.087,235.88c-2.691,0-4.913-2.14-4.995-4.848l-0.06-1.98c-0.001-0.05-0.002-0.101-0.002-0.151l-0.01-0.89    c0-2.761,2.239-5,5-5s5,2.239,5,5l0.067,2.718c0.084,2.76-2.086,5.066-4.846,5.149C126.19,235.879,126.138,235.88,126.087,235.88z    "/><path d="M356,431H166c-2.761,0-5-2.238-5-5s2.239-5,5-5h190c2.762,0,5,2.238,5,5S358.762,431,356,431z"/><path d="M356,401H166c-2.761,0-5-2.238-5-5s2.239-5,5-5h190c2.762,0,5,2.238,5,5S358.762,401,356,401z"/><path d="M407.988,361c-1.151,0-2.308-0.395-3.25-1.202c-2.098-1.796-2.342-4.952-0.546-7.05C434.377,317.49,451,272.478,451,226    c0-107.523-87.477-195-195-195S61,118.477,61,226c0,46.478,16.624,91.49,46.808,126.748c1.796,2.098,1.551,5.254-0.547,7.05    c-2.098,1.798-5.254,1.552-7.05-0.546C68.477,322.184,51,274.86,51,226c0-113.038,91.962-205,205-205    c113.037,0,205,91.962,205,205c0,48.86-17.477,96.184-49.212,133.252C410.8,360.407,409.397,361,407.988,361z"/><path d="M276,401c-2.762,0-5-2.238-5-5V221c0-16.542,13.458-30,30-30c8.017,0,15.551,3.12,21.216,8.785    C327.88,205.449,331,212.983,331,221v5c0,2.761-2.238,5-5,5s-5-2.239-5-5v-5c0-5.346-2.079-10.369-5.855-14.145    S306.346,201,301,201c-11.028,0-20,8.972-20,20v175C281,398.762,278.762,401,276,401z"/><path d="M246,401c-2.761,0-5-2.238-5-5V221c0-11.028-8.972-20-20-20c-5.345,0-10.369,2.08-14.145,5.855S201,215.655,201,221v5    c0,2.761-2.239,5-5,5s-5-2.239-5-5v-5c0-8.017,3.12-15.551,8.784-21.216S212.983,191,221,191c16.542,0,30,13.458,30,30v175    C251,398.762,248.761,401,246,401z"/><path d="M256,361c-3.434,0-6.926-0.133-10.378-0.395c-14.362-1.092-28.34-4.443-41.55-9.962c-1.643-0.682-3.132-1.334-4.541-1.99    c-0.738-0.338-1.502-0.698-2.255-1.07c-0.698-0.333-1.461-0.705-2.205-1.087c-0.647-0.329-1.318-0.67-1.979-1.021    c-0.087-0.043-0.218-0.109-0.374-0.201c-0.653-0.346-1.306-0.693-1.95-1.058c-0.199-0.104-0.395-0.211-0.592-0.326    c-0.537-0.299-1.073-0.6-1.6-0.909c-0.607-0.347-1.254-0.731-1.901-1.117c-0.779-0.464-1.544-0.931-2.309-1.42    c-0.66-0.414-1.343-0.849-2.025-1.293c-0.598-0.385-1.207-0.794-1.815-1.203c-0.434-0.286-0.895-0.606-1.348-0.929    c-0.456-0.309-0.912-0.627-1.359-0.956c-3.829-2.714-7.541-5.656-11.034-8.748c-0.504-0.443-1.026-0.904-1.539-1.364    c-4.429-4.032-8.586-8.343-12.378-12.835c-0.679-0.801-1.353-1.62-2.016-2.438c-1.368-1.689-2.715-3.446-4.002-5.223    c-0.633-0.872-1.269-1.759-1.885-2.655c-1.624-2.333-3.206-4.775-4.683-7.233c-0.311-0.505-0.642-1.066-0.971-1.625l-0.229-0.389    c-0.017-0.029-0.034-0.059-0.05-0.088l-0.376-0.667c-0.283-0.5-0.568-1.004-0.848-1.508l-0.355-0.651    c-0.234-0.428-0.468-0.856-0.692-1.284c-0.438-0.826-0.887-1.671-1.315-2.527c-0.332-0.654-0.666-1.331-0.991-2.01    c-0.026-0.052-0.052-0.105-0.078-0.158c-0.021-0.039-0.041-0.079-0.06-0.12c-0.324-0.668-0.637-1.336-0.95-2.016    c-0.342-0.747-0.681-1.495-1.009-2.234c-0.267-0.61-0.521-1.195-0.766-1.791c-0.171-0.393-0.38-0.888-0.578-1.384    c-1.237-3.011-2.402-6.186-3.442-9.39c-0.451-1.366-0.864-2.755-1.173-3.811c-0.234-0.782-0.466-1.604-0.688-2.426    c-0.013-0.042-0.024-0.084-0.036-0.126c-0.213-0.777-0.415-1.554-0.606-2.342c-0.195-0.761-0.396-1.594-0.586-2.428    c-0.212-0.887-0.414-1.813-0.605-2.76c-0.139-0.658-0.285-1.351-0.415-2.046c-0.029-0.125-0.053-0.251-0.073-0.378    c-0.146-0.759-0.284-1.518-0.412-2.276c-0.124-0.683-0.248-1.432-0.362-2.183c-0.045-0.251-0.082-0.502-0.118-0.753    c-0.101-0.686-0.205-1.393-0.298-2.11c-0.107-0.789-0.208-1.612-0.3-2.438c-0.008-0.052-0.014-0.104-0.02-0.157h0    c-0.095-0.844-0.189-1.687-0.263-2.542c-0.068-0.694-0.14-1.441-0.193-2.19c-0.021-0.24-0.042-0.481-0.055-0.722    c-0.06-0.731-0.102-1.473-0.143-2.214c-0.048-0.763-0.089-1.554-0.112-2.356c-0.014-0.172-0.022-0.327-0.025-0.479l-0.059-1.936    c-0.001-0.051-0.002-0.101-0.002-0.152l-0.01-0.89c-0.01-0.619-0.02-1.314-0.02-2.01c0-74.439,60.561-135,135-135    s135,60.561,135,135c0,0.891-0.01,1.771-0.03,2.662c-0.001,0.328-0.01,0.655-0.02,0.983l-0.011,0.414    c-0.001,0.013-0.004,0.123-0.004,0.136c-0.011,0.349-0.021,0.697-0.039,1.046c-0.022,0.691-0.054,1.382-0.096,2.072    c-0.044,0.829-0.085,1.604-0.147,2.37c-0.046,0.743-0.109,1.574-0.183,2.405c-0.074,0.807-0.156,1.59-0.239,2.363    c-0.081,0.774-0.174,1.554-0.266,2.334c-0.085,0.701-0.178,1.385-0.271,2.069c-0.139,0.981-0.284,1.938-0.44,2.886    c-0.078,0.51-0.174,1.069-0.271,1.617c-0.185,1.064-0.383,2.143-0.603,3.222c-0.103,0.562-0.243,1.207-0.386,1.852    c-0.163,0.767-0.332,1.556-0.521,2.344c-0.172,0.74-0.353,1.511-0.553,2.282c-0.152,0.618-0.329,1.296-0.507,1.966l-0.165,0.618    c-0.178,0.634-0.355,1.269-0.542,1.902c-0.192,0.694-0.427,1.464-0.662,2.222c-0.186,0.63-0.403,1.313-0.631,1.996l-0.028,0.089    c-0.052,0.159-0.104,0.316-0.161,0.477c-0.187,0.594-0.382,1.179-0.587,1.763c-0.26,0.761-0.546,1.563-0.841,2.356    c-0.236,0.661-0.504,1.368-0.783,2.076c-0.567,1.481-1.144,2.906-1.745,4.314l-0.104,0.24c-0.255,0.594-0.512,1.187-0.776,1.78    l-0.085,0.19c-0.281,0.627-0.563,1.254-0.853,1.881c-0.382,0.815-0.764,1.6-1.145,2.382c-0.239,0.5-0.505,1.031-0.781,1.562    c-0.423,0.85-0.897,1.767-1.394,2.684c-0.257,0.494-0.557,1.051-0.869,1.597c-0.322,0.592-0.702,1.268-1.093,1.942l-0.836,1.444    c-0.942,1.593-1.814,3.002-2.704,4.378c-0.39,0.608-0.804,1.249-1.227,1.872c-0.279,0.434-0.57,0.867-0.87,1.291l-0.484,0.7    c-0.304,0.45-0.628,0.915-0.963,1.37c-0.234,0.34-0.481,0.68-0.725,1.013l-0.117,0.161c-2.411,3.333-5.069,6.652-7.893,9.854    c-0.44,0.51-0.924,1.047-1.407,1.583c-2.576,2.84-5.368,5.652-8.308,8.371c-0.462,0.431-0.939,0.866-1.428,1.302l-1.188,1.058    c-2.205,1.94-4.542,3.858-6.982,5.734l-0.437,0.327c-0.229,0.172-0.457,0.344-0.69,0.513c-1.052,0.801-1.93,1.442-2.755,2.015    c-0.399,0.293-0.808,0.577-1.227,0.86c-0.986,0.699-1.927,1.338-2.876,1.951c-0.63,0.413-1.257,0.823-1.893,1.223    c-1.207,0.766-2.514,1.563-3.867,2.357c-0.676,0.397-1.351,0.793-2.034,1.167c-0.532,0.306-1.15,0.648-1.768,0.99l-0.095,0.054    c-0.08,0.044-0.161,0.086-0.244,0.126l-0.202,0.109c-0.563,0.304-1.122,0.604-1.688,0.892    c-12.979,6.769-26.958,11.354-41.499,13.603C269.964,360.465,262.977,361,256,361z M197.793,336.648    c0.604,0.32,1.218,0.632,1.831,0.943c0.681,0.351,1.357,0.678,2.023,0.997c0.724,0.356,1.399,0.676,2.076,0.986    c1.308,0.607,2.671,1.205,4.194,1.837c12.232,5.11,25.169,8.212,38.462,9.223c9.702,0.733,19.458,0.351,28.855-1.106    c13.46-2.081,26.396-6.324,38.453-12.612c0.542-0.274,1.027-0.537,1.517-0.801l0.369-0.199c0.045-0.023,0.09-0.047,0.136-0.07    c0.556-0.309,1.112-0.617,1.669-0.936c0.678-0.372,1.263-0.716,1.847-1.06c1.259-0.739,2.468-1.477,3.598-2.193    c0.6-0.377,1.172-0.752,1.744-1.127c0.899-0.582,1.736-1.149,2.618-1.776c0.032-0.022,0.063-0.045,0.097-0.066    c0.342-0.231,0.676-0.462,1-0.701c0.041-0.03,0.082-0.06,0.123-0.088c0.728-0.503,1.521-1.084,2.496-1.827    c0.035-0.026,0.07-0.052,0.105-0.077c0.195-0.142,0.387-0.286,0.577-0.43l0.431-0.322c2.196-1.688,4.36-3.465,6.363-5.227    l1.158-1.032c0.449-0.4,0.872-0.785,1.295-1.18c2.741-2.535,5.325-5.139,7.697-7.753c0.428-0.474,0.864-0.958,1.29-1.451    c2.644-2.998,5.1-6.064,7.332-9.15l0.133-0.182c0.201-0.276,0.407-0.559,0.601-0.84c0.034-0.051,0.07-0.102,0.106-0.15    c0.268-0.361,0.524-0.73,0.773-1.101c0.012-0.018,0.048-0.07,0.061-0.087l0.521-0.754c0.25-0.354,0.468-0.68,0.678-1.006    c0.024-0.039,0.05-0.077,0.076-0.115c0.382-0.561,0.755-1.14,1.118-1.708c0.833-1.288,1.637-2.588,2.473-3.997l0.81-1.401    c0.362-0.627,0.703-1.232,1.033-1.836c0.295-0.519,0.534-0.962,0.765-1.404c0.478-0.887,0.903-1.708,1.319-2.541    c0.264-0.508,0.479-0.938,0.684-1.366c0.374-0.768,0.732-1.505,1.082-2.251c0.264-0.571,0.53-1.164,0.797-1.758l0.08-0.18    c0.243-0.545,0.482-1.101,0.723-1.656l0.098-0.228c0.545-1.273,1.074-2.583,1.612-3.987c0.257-0.654,0.489-1.268,0.712-1.889    c0.285-0.765,0.54-1.481,0.785-2.199c0.194-0.555,0.365-1.068,0.528-1.59c0.032-0.106,0.069-0.211,0.109-0.314l0.095-0.295    c0.197-0.592,0.381-1.169,0.555-1.754c0.226-0.727,0.431-1.398,0.617-2.07c0.195-0.663,0.36-1.255,0.525-1.845l0.113-0.427    c0.178-0.673,0.341-1.293,0.494-1.915c0.193-0.75,0.354-1.439,0.515-2.128c0.178-0.739,0.328-1.447,0.479-2.155    c0.126-0.572,0.244-1.104,0.343-1.645c0.219-1.076,0.398-2.057,0.57-3.048c0.088-0.497,0.172-0.978,0.246-1.459    c0.15-0.922,0.286-1.805,0.41-2.688c0.083-0.612,0.17-1.248,0.247-1.884c0.086-0.725,0.174-1.463,0.251-2.202    c0.078-0.734,0.156-1.47,0.225-2.207c0.063-0.726,0.121-1.475,0.168-2.224c0.061-0.761,0.096-1.443,0.132-2.125    c0.001-0.014,0.007-0.12,0.007-0.133c0.037-0.61,0.065-1.222,0.084-1.833c0.002-0.038,0.003-0.077,0.006-0.115    c0.015-0.287,0.023-0.574,0.031-0.86l0.015-0.544c0.008-0.251,0.016-0.503,0.016-0.755c0-0.039,0-0.079,0.001-0.118    c0.02-0.831,0.029-1.652,0.029-2.482c0-68.925-56.075-125-125-125c-68.925,0-125,56.075-125,125c0,0.645,0.01,1.289,0.02,1.934    l0.068,2.791c0.008,0.107,0.019,0.263,0.021,0.339c0.018,0.726,0.056,1.442,0.102,2.168c0.04,0.715,0.076,1.386,0.132,2.047    c0.005,0.063,0.009,0.125,0.012,0.188c0.007,0.146,0.022,0.293,0.035,0.44c0.003,0.036,0.006,0.072,0.009,0.108    c0.046,0.673,0.112,1.346,0.178,2.02c0.068,0.782,0.148,1.504,0.23,2.225c0.009,0.061,0.017,0.123,0.023,0.184    c0.086,0.777,0.18,1.554,0.285,2.322c0.09,0.691,0.187,1.344,0.283,1.997c0.022,0.159,0.04,0.29,0.064,0.421    c0.012,0.063,0.022,0.126,0.032,0.189c0.103,0.682,0.215,1.363,0.336,2.036c0.133,0.788,0.266,1.517,0.408,2.246    c0.002,0.009,0.003,0.018,0.005,0.026c0.009,0.043,0.018,0.086,0.025,0.129c0.122,0.666,0.263,1.331,0.403,1.997    c0.177,0.874,0.355,1.688,0.551,2.512c0.182,0.795,0.361,1.541,0.55,2.278c0.174,0.714,0.342,1.363,0.518,2.008    c0.035,0.111,0.064,0.221,0.091,0.324c0.194,0.72,0.397,1.439,0.609,2.148c0.352,1.203,0.705,2.377,1.087,3.532    c0.971,2.99,2.047,5.925,3.208,8.749c0.18,0.451,0.352,0.856,0.523,1.252c0.253,0.616,0.479,1.131,0.704,1.646    c0.3,0.676,0.622,1.387,0.943,2.088c0.271,0.587,0.545,1.173,0.828,1.759c0.032,0.062,0.063,0.124,0.092,0.188    c0.023,0.044,0.045,0.089,0.067,0.134c0.303,0.634,0.615,1.269,0.937,1.902c0.405,0.81,0.816,1.583,1.227,2.357    c0.21,0.399,0.417,0.778,0.624,1.156l0.348,0.64c0.241,0.433,0.513,0.915,0.784,1.395l0.569,0.991    c0.296,0.504,0.594,1.01,0.898,1.504c1.389,2.311,2.848,4.564,4.364,6.742c0.584,0.852,1.168,1.664,1.752,2.469    c1.186,1.635,2.423,3.249,3.68,4.801c0.617,0.763,1.243,1.523,1.879,2.274c3.517,4.166,7.368,8.159,11.451,11.876    c0.464,0.416,0.962,0.855,1.45,1.285c3.244,2.871,6.685,5.598,10.234,8.111c0.028,0.02,0.056,0.04,0.083,0.06    c0.362,0.269,0.733,0.526,1.104,0.776c0.035,0.024,0.071,0.049,0.106,0.073c0.371,0.266,0.75,0.53,1.139,0.786    c0.592,0.399,1.144,0.77,1.705,1.131c0.658,0.429,1.296,0.834,1.943,1.241c0.708,0.451,1.383,0.863,2.077,1.276    c0.6,0.358,1.193,0.712,1.796,1.057c0.528,0.31,1.016,0.581,1.503,0.854c0.037,0.021,0.074,0.042,0.111,0.063    c0.099,0.059,0.199,0.109,0.298,0.162c0.043,0.022,0.088,0.047,0.131,0.071c0.626,0.355,1.263,0.692,1.9,1.028    c0.054,0.028,0.108,0.059,0.162,0.09C197.73,336.615,197.762,336.632,197.793,336.648z"/><path d="M256,101c-2.761,0-5-2.239-5-5V66c0-2.761,2.239-5,5-5c2.762,0,5,2.239,5,5v30C261,98.761,258.762,101,256,101z"/><path d="M344.79,132.21c-1.279,0-2.56-0.488-3.535-1.464c-1.953-1.953-1.953-5.119,0-7.071l21.21-21.21    c1.951-1.952,5.119-1.952,7.07,0c1.953,1.953,1.953,5.119,0,7.071l-21.21,21.21C347.35,131.722,346.069,132.21,344.79,132.21z"/><path d="M167.21,132.21c-1.28,0-2.559-0.488-3.536-1.464l-21.21-21.21c-1.953-1.953-1.953-5.119,0-7.071    c1.953-1.952,5.118-1.952,7.071,0l21.21,21.21c1.953,1.953,1.953,5.119,0,7.071C169.769,131.722,168.49,132.21,167.21,132.21z"/><path d="M126,216H96c-2.761,0-5-2.239-5-5s2.239-5,5-5h30c2.761,0,5,2.239,5,5S128.761,216,126,216z"/><path d="M416,216h-30c-2.762,0-5-2.239-5-5s2.238-5,5-5h30c2.762,0,5,2.239,5,5S418.762,216,416,216z"/><path d="M306,251h-90c-2.761,0-5-2.239-5-5s2.239-5,5-5h90c2.762,0,5,2.239,5,5S308.762,251,306,251z"/><path d="M296,491h-60c-2.761,0-5-2.238-5-5v-30c0-2.762,2.239-5,5-5h60c2.762,0,5,2.238,5,5v30C301,488.762,298.762,491,296,491z     M241,481h50v-20h-50V481z"/></g></g><g id="Layer_1"/></svg>